<svg width="64" height="15" viewBox="0 0 64 15" fill="none" xmlns="http://www.w3.org/2000/svg">
<path d="M46.9106 0.847168H41.1906L33.1523 14.5486H36.7593L38.5849 11.4312H47.6876L49.5701 14.5486H55.1637L46.9106 0.847168ZM40.2052 8.67386L43.092 3.7498L46.0547 8.67386H40.2052Z" fill="#004098"/>
<path d="M27.5887 0.294381C26.1232 0.294381 21.9951 0.449146 19.2725 0.847113V14.5486H23.6438V9.59292C24.1934 9.77611 27.3455 10.0825 28.4447 10.0825C29.5438 10.0825 37.4337 9.74768 37.4337 5.06683C37.4337 0.0511791 29.0574 0.294381 27.5887 0.294381ZM27.8351 7.69783C26.4296 7.69783 24.8061 7.57466 23.6469 7.14826V2.92855C24.6387 2.79273 26.4485 2.64112 28.1099 2.71377C28.7826 2.7422 32.2696 2.86538 32.298 5.13C32.3296 7.48306 29.2438 7.69783 27.8351 7.69783Z" fill="#004098"/>
<path d="M16.1853 6.94923C16.937 6.31753 17.4298 5.48686 17.4298 4.40034C17.4329 -0.214183 9.28723 0.19326 7.89119 0.19326C6.49514 0.19326 2.94186 0.392244 0.0234375 0.831271V14.22C2.74288 14.618 6.871 14.7696 8.33653 14.7696C9.80206 14.7696 18.3078 15.2307 18.3362 10.2119C18.3457 8.69902 17.4298 7.65988 16.1853 6.94607V6.94923ZM4.45793 2.91586C5.41179 2.65055 7.8975 2.5558 8.53552 2.5558C9.17353 2.5558 12.4899 2.50526 12.4899 4.49825C12.4899 6.14698 9.2746 6.19119 7.93856 6.19119C7.21843 6.19119 5.42442 6.16909 4.45793 6.05538V2.9127V2.91586ZM4.45793 8.61058C5.24755 8.45898 6.5362 8.36106 8.33021 8.33895C9.73573 8.32 13.1374 8.26947 13.1374 10.3604C13.1374 12.4513 9.65046 12.3534 8.9777 12.3534C8.30495 12.3534 5.8445 12.3218 4.45477 12.0786V8.61058H4.45793Z" fill="#004098"/>
<path d="M51.8076 0.84375H63.9772L57.9761 11.0772L51.8076 0.84375Z" fill="#F08300"/>
</svg>
